# xmcd
#
# Track frame offsets:
# 150
# 16544
# 36012
# 55560
# 79271
# 100306
# 117823
# 138508
# 153135
# 175297
# 192304
# 208884
# 232717
# 248374
# 264727
# 283930
#
# Disc length: 4155 seconds
#
#
# Revision: 13
# Processed by: cddbd v1.4PL0 Copyright (c) Steve Scherf et al.
# Submitted via: FreeRIP 2.00 
#
DISCID=cc103910
DTITLE=Red Hot Chili Peppers - By The Way
DYEAR=2002
DGENRE=Rock
TTITLE0=By The Way
TTITLE1=Universally Speaking
TTITLE2=This Is The Place
TTITLE3=Dosed
TTITLE4=Don't Forget Me
TTITLE5=The Zephyr Song
TTITLE6=Can't Stop
TTITLE7=I Could Die For You
TTITLE8=Midnight
TTITLE9=Throw Away Your Television
TTITLE10=Cabron
TTITLE11=Tear
TTITLE12=On Mercury
TTITLE13=Minor Thing
TTITLE14=Warm Tape
TTITLE15=Venice Queen
EXTD=YEAR: 2002 ID3G: 17
EXTT0=
EXTT1=
EXTT2=
EXTT3=
EXTT4=
EXTT5=
EXTT6=
EXTT7=
EXTT8=
EXTT9=
EXTT10=
EXTT11=
EXTT12=
EXTT13=
EXTT14=
EXTT15=
PLAYORDER=
